<svg width="18" height="18" viewBox="0 0 18 18" fill="none" xmlns="http://www.w3.org/2000/svg">
<path d="M9.00016 17.14C9.31512 17.1327 9.61738 17.0143 9.85346 16.8057C10.0895 16.5971 10.2442 16.3117 10.2902 16H7.66016C7.70739 16.3202 7.86932 16.6123 8.11581 16.822C8.3623 17.0317 8.67657 17.1447 9.00016 17.14Z" fill="#619BF1"/>
<path d="M16.4249 14.0652L16.2549 13.9152C15.7726 13.4855 15.3505 12.9927 14.9999 12.4502C14.617 11.7015 14.3875 10.8838 14.3249 10.0452V7.5752C14.3229 7.27517 14.2961 6.97582 14.2449 6.6802C13.398 6.50611 12.6372 6.04471 12.0914 5.37409C11.5456 4.70347 11.2483 3.86484 11.2499 3.0002V2.6852C10.7279 2.42829 10.167 2.25935 9.5899 2.1852V1.5552C9.5899 1.37816 9.51958 1.20838 9.3944 1.0832C9.26922 0.958021 9.09943 0.887695 8.9224 0.887695C8.74537 0.887695 8.57559 0.958021 8.45041 1.0832C8.32523 1.20838 8.2549 1.37816 8.2549 1.5552V2.2102C6.96276 2.39247 5.78019 3.03607 4.92551 4.02216C4.07084 5.00826 3.60177 6.27026 3.6049 7.5752V10.0452C3.54228 10.8838 3.31279 11.7015 2.9299 12.4502C2.58534 12.9914 2.17 13.4841 1.6949 13.9152L1.5249 14.0652V15.4752H16.4249V14.0652Z" fill="#619BF1"/>
<path d="M15 5.5C16.3807 5.5 17.5 4.38071 17.5 3C17.5 1.61929 16.3807 0.5 15 0.5C13.6193 0.5 12.5 1.61929 12.5 3C12.5 4.38071 13.6193 5.5 15 5.5Z" fill="#619BF1"/>
</svg>
