<svg width="11" height="10" viewBox="0 0 11 10" fill="none" xmlns="http://www.w3.org/2000/svg">
<path d="M2.58369 9.63472H2.01936L2.35796 9.18326C2.58369 8.87288 2.72477 8.47785 2.80942 7.99818C1.39861 7.3492 0.608551 6.13591 0.608551 4.5558C0.608551 2.1292 2.44261 0.60553 5.40531 0.60553C8.36801 0.60553 10.2021 2.1292 10.2021 4.5558C10.2021 7.03883 8.39623 8.50607 5.40531 8.50607H5.20779C4.75633 9.04218 3.96628 9.63472 2.58369 9.63472ZM5.40531 1.16985C2.75298 1.16985 1.17288 2.43958 1.17288 4.5558C1.17288 6.36164 2.27331 7.20812 3.20444 7.57493L3.40196 7.65958L3.37374 7.88531C3.31731 8.33677 3.23266 8.7318 3.06336 9.07039C3.9945 8.95753 4.53061 8.47785 4.84098 8.08283L4.92563 7.96996H5.40531C9.2145 7.96996 9.63774 5.5998 9.63774 4.58402C9.63774 2.43958 8.05763 1.16985 5.40531 1.16985Z" fill="#B7B2B2"/>
</svg>
