<svg width="12" height="11" viewBox="0 0 12 11" fill="none" xmlns="http://www.w3.org/2000/svg">
<path d="M10.3849 1.75831C10.1365 1.5179 9.84145 1.32719 9.51674 1.19708C9.19203 1.06697 8.844 1 8.49252 1C8.14104 1 7.793 1.06697 7.46829 1.19708C7.14358 1.32719 6.84856 1.5179 6.60008 1.75831L6.08441 2.257L5.56873 1.75831C5.06683 1.27293 4.3861 1.00025 3.6763 1.00025C2.9665 1.00025 2.28577 1.27293 1.78387 1.75831C1.28197 2.24368 1 2.90199 1 3.58841C1 4.27483 1.28197 4.93314 1.78387 5.41851L2.29955 5.9172L6.08441 9.57741L9.86927 5.9172L10.3849 5.41851C10.6335 5.17822 10.8307 4.89292 10.9653 4.5789C11.0998 4.26489 11.1691 3.92831 11.1691 3.58841C11.1691 3.2485 11.0998 2.91193 10.9653 2.59792C10.8307 2.2839 10.6335 1.9986 10.3849 1.75831Z" stroke="#B7B2B2" stroke-linecap="round" stroke-linejoin="round"/>
</svg>
