<svg width="41" height="41" viewBox="0 0 41 41" fill="none" xmlns="http://www.w3.org/2000/svg">
<g clip-path="url(#clip0_1_82)">
<path fill-rule="evenodd" clip-rule="evenodd" d="M37.1562 7.6875H3.84375C3.50394 7.6875 3.17805 7.82249 2.93777 8.06277C2.69749 8.30305 2.5625 8.62894 2.5625 8.96875V32.0312C2.5625 32.3711 2.69749 32.697 2.93777 32.9372C3.17805 33.1775 3.50394 33.3125 3.84375 33.3125H37.1562C37.4961 33.3125 37.8219 33.1775 38.0622 32.9372C38.3025 32.697 38.4375 32.3711 38.4375 32.0312V8.96875C38.4375 8.62894 38.3025 8.30305 38.0622 8.06277C37.8219 7.82249 37.4961 7.6875 37.1562 7.6875ZM3.84375 5.125C2.82432 5.125 1.84665 5.52997 1.12581 6.25081C0.404965 6.97165 0 7.94932 0 8.96875L0 32.0312C0 33.0507 0.404965 34.0283 1.12581 34.7492C1.84665 35.47 2.82432 35.875 3.84375 35.875H37.1562C38.1757 35.875 39.1534 35.47 39.8742 34.7492C40.595 34.0283 41 33.0507 41 32.0312V8.96875C41 7.94932 40.595 6.97165 39.8742 6.25081C39.1534 5.52997 38.1757 5.125 37.1562 5.125H3.84375Z" fill="#8DD0F6"/>
<path d="M27.2857 19.593C27.4761 19.4032 27.7212 19.2781 27.9866 19.2353C28.2519 19.1926 28.524 19.2343 28.7643 19.3547L38.4429 24.3439V33.3126H2.56787V30.7501L9.34825 24.718C9.55769 24.5093 9.83285 24.3795 10.1271 24.3505C10.4213 24.3216 10.7165 24.3953 10.9626 24.5591L17.7789 29.1024L27.2857 19.5956V19.593Z" fill="#8DD0F6"/>
<path fill-rule="evenodd" clip-rule="evenodd" d="M11.5366 17.9375C12.0414 17.9375 12.5412 17.8381 13.0076 17.6449C13.4739 17.4517 13.8976 17.1686 14.2546 16.8117C14.6115 16.4548 14.8946 16.031 15.0878 15.5647C15.281 15.0983 15.3804 14.5985 15.3804 14.0938C15.3804 13.589 15.281 13.0892 15.0878 12.6228C14.8946 12.1565 14.6115 11.7327 14.2546 11.3758C13.8976 11.0189 13.4739 10.7358 13.0076 10.5426C12.5412 10.3494 12.0414 10.25 11.5366 10.25C10.5172 10.25 9.53952 10.655 8.81868 11.3758C8.09784 12.0967 7.69287 13.0743 7.69287 14.0938C7.69287 15.1132 8.09784 16.0908 8.81868 16.8117C9.53952 17.5325 10.5172 17.9375 11.5366 17.9375Z" fill="#8DD0F6"/>
</g>
<defs>
<clipPath id="clip0_1_82">
<rect width="41" height="41" fill="white"/>
</clipPath>
</defs>
</svg>
