<svg width="18" height="22" viewBox="0 0 18 22" fill="none" xmlns="http://www.w3.org/2000/svg">
<path fill-rule="evenodd" clip-rule="evenodd" d="M6.9548 0.964329C6.95494 0.763397 6.9047 0.567436 6.8111 0.40387C6.71751 0.240304 6.58524 0.117318 6.43281 0.052124C6.28038 -0.0130704 6.11542 -0.017211 5.96101 0.0402816C5.8066 0.0977742 5.67047 0.214023 5.57167 0.37276L0.162802 9.04397C0.0572872 9.2131 0 9.42126 0 9.63554C0 9.84981 0.0572872 10.058 0.162802 10.2271L5.57167 18.8983C5.67047 19.0571 5.8066 19.1733 5.96101 19.2308C6.11542 19.2883 6.28038 19.2841 6.43281 19.219C6.58524 19.1538 6.71751 19.0308 6.8111 18.8672C6.9047 18.7036 6.95494 18.5077 6.9548 18.3067V14.4625C11.1111 14.5704 13.1078 15.5541 14.1107 16.6236C15.0642 17.64 15.2389 18.8357 15.4205 20.0882L15.4676 20.411C15.5023 20.6419 15.6034 20.8491 15.752 20.9936C15.9007 21.138 16.0865 21.2098 16.2746 21.1953C16.4627 21.1809 16.64 21.0812 16.7733 20.9151C16.9066 20.749 16.9866 20.5279 16.9983 20.2934C17.1304 17.6458 16.9318 13.8093 15.432 10.6C13.9763 7.48508 11.3545 5.0899 6.9548 4.8394V0.964329Z" fill="#619BF1"/>
</svg>
