<svg width="35" height="35" viewBox="0 0 35 35" fill="none" xmlns="http://www.w3.org/2000/svg">
<path d="M14.1344 0.209961C10.0731 0.209961 6.81404 2.99919 6.81404 8.32996C6.81404 11.8111 8.20058 15.3569 10.306 17.5417C11.1271 19.7265 9.64635 20.5396 9.33942 20.6553C5.08962 22.2142 0.125 25.0411 0.125 27.8492V28.8992C0.125 32.7263 7.41308 33.6107 14.1748 33.6107C15.6486 33.6083 17.1218 33.5526 18.5915 33.4438C16.7511 31.5013 15.7275 28.9259 15.7323 26.25C15.7323 23.839 16.5535 21.63 17.9185 19.8557C17.7165 19.3819 17.6358 18.6348 18.0033 17.5C20.0965 15.3125 21.4535 11.7977 21.4535 8.32861C21.4535 2.99919 18.1904 0.211307 14.1331 0.211307L14.1344 0.209961ZM26.2498 17.7517C23.9961 17.7517 21.8347 18.647 20.2411 20.2406C18.6475 21.8342 17.7522 23.9956 17.7522 26.2493C17.7522 28.503 18.6475 30.6644 20.2411 32.258C21.8347 33.8516 23.9961 34.7469 26.2498 34.7469C28.5035 34.7469 30.6649 33.8516 32.2585 32.258C33.8521 30.6644 34.7474 28.503 34.7474 26.2493C34.7474 23.9956 33.8521 21.8342 32.2585 20.2406C30.6649 18.647 28.5035 17.7517 26.2498 17.7517ZM25.0719 21.5384H27.4277V25.0303H30.9196V27.4696H27.4277V30.9615H25.0719V27.4696H21.5383V25.0303H25.0719V21.5384Z" fill="#EB9718"/>
</svg>
