<svg width="11" height="12" viewBox="0 0 11 12" fill="none" xmlns="http://www.w3.org/2000/svg">
<path d="M10.4402 5.84135L6.22399 0.994937C6.15029 0.91024 6.05639 0.852564 5.95417 0.829199C5.85195 0.805835 5.746 0.817832 5.64972 0.863673C5.55343 0.909514 5.47113 0.987141 5.41321 1.08674C5.3553 1.18634 5.32438 1.30344 5.32436 1.42324V3.57081C3.88467 3.72395 2.54652 4.48912 1.57176 5.71657C0.597006 6.94403 0.055811 8.54542 0.0540867 10.2074V11.1161C0.0541699 11.2418 0.0882958 11.3644 0.151731 11.4669C0.215166 11.5693 0.304767 11.6466 0.408104 11.6878C0.511442 11.7291 0.623394 11.7324 0.728433 11.6973C0.833472 11.6621 0.926392 11.5903 0.994303 11.4917C1.51063 10.7859 2.14415 10.2055 2.85784 9.78429C3.57154 9.36313 4.35109 9.10969 5.15097 9.03877C5.17732 9.03514 5.2432 9.02908 5.32436 9.02302V11.1161C5.32438 11.2359 5.3553 11.353 5.41321 11.4526C5.47113 11.5522 5.55343 11.6298 5.64972 11.6756C5.746 11.7215 5.85195 11.7335 5.95417 11.7101C6.05639 11.6867 6.15029 11.6291 6.22399 11.5444L10.4402 6.69796C10.539 6.58435 10.5945 6.43029 10.5945 6.26965C10.5945 6.10902 10.539 5.95496 10.4402 5.84135ZM6.37841 9.65366V8.38996C6.37841 8.22929 6.32289 8.0752 6.22405 7.96159C6.12521 7.84798 5.99116 7.78416 5.85138 7.78416C5.71699 7.78416 5.16836 7.81445 5.02817 7.83565C3.60776 7.98609 2.2557 8.6064 1.13555 9.62156C1.26269 8.28542 1.81411 7.05014 2.68424 6.15222C3.55437 5.25431 4.68206 4.75687 5.85138 4.75515C5.99116 4.75515 6.12521 4.69132 6.22405 4.57771C6.32289 4.4641 6.37841 4.31002 6.37841 4.14935V2.88564L9.32238 6.26965L6.37841 9.65366Z" fill="#B7B2B2"/>
</svg>
